<mxfile host="app.diagrams.net" agent="Mozilla/5.0 (Windows NT 10.0; Win64; x64) AppleWebKit/537.36 (KHTML, like Gecko) Chrome/134.0.0.0 Safari/537.36" version="26.0.16" pages="3">
  <diagram name="Diagrama de caso de uso" id="JJ-OYNha6cMFUj9l-0EL">
    <mxGraphModel dx="1050" dy="505" grid="1" gridSize="10" guides="1" tooltips="1" connect="1" arrows="1" fold="1" page="1" pageScale="1" pageWidth="1169" pageHeight="827" math="0" shadow="0">
      <root>
        <mxCell id="0" />
        <mxCell id="1" parent="0" />
        <mxCell id="hmbs_IVqfiLHla6d1OVb-1" value="Empleado" style="shape=umlActor;verticalLabelPosition=bottom;verticalAlign=top;html=1;" parent="1" vertex="1">
          <mxGeometry x="130" y="354" width="30" height="60" as="geometry" />
        </mxCell>
        <mxCell id="hmbs_IVqfiLHla6d1OVb-2" value="Empleado" style="shape=umlActor;verticalLabelPosition=bottom;verticalAlign=top;html=1;" parent="1" vertex="1">
          <mxGeometry x="1120" y="330" width="30" height="60" as="geometry" />
        </mxCell>
        <mxCell id="hmbs_IVqfiLHla6d1OVb-4" value="CU Sistema de Renta de pelicula (Blockbuster)" style="swimlane;whiteSpace=wrap;html=1;fillColor=#e1d5e7;strokeColor=#9673a6;" parent="1" vertex="1">
          <mxGeometry x="340" y="140" width="730" height="525" as="geometry" />
        </mxCell>
        <mxCell id="hmbs_IVqfiLHla6d1OVb-15" value="01.1_Mantenimiento" style="ellipse;whiteSpace=wrap;html=1;fillColor=#dae8fc;strokeColor=#6c8ebf;" parent="hmbs_IVqfiLHla6d1OVb-4" vertex="1">
          <mxGeometry x="550" y="204.5" width="140" height="30" as="geometry" />
        </mxCell>
        <mxCell id="hmbs_IVqfiLHla6d1OVb-19" value="" style="endArrow=block;dashed=1;endFill=0;endSize=12;html=1;rounded=0;exitX=0;exitY=0.5;exitDx=0;exitDy=0;" parent="hmbs_IVqfiLHla6d1OVb-4" source="hmbs_IVqfiLHla6d1OVb-15" target="AxsfyqmF0v3EFA9DNjUf-1" edge="1">
          <mxGeometry width="160" relative="1" as="geometry">
            <mxPoint x="190" y="274.5" as="sourcePoint" />
            <mxPoint x="500.0000000000032" y="140.0000000000001" as="targetPoint" />
          </mxGeometry>
        </mxCell>
        <mxCell id="hmbs_IVqfiLHla6d1OVb-18" value="" style="endArrow=block;dashed=1;endFill=0;endSize=12;html=1;rounded=0;exitX=0;exitY=0.5;exitDx=0;exitDy=0;" parent="hmbs_IVqfiLHla6d1OVb-4" source="hmbs_IVqfiLHla6d1OVb-15" target="AxsfyqmF0v3EFA9DNjUf-5" edge="1">
          <mxGeometry width="160" relative="1" as="geometry">
            <mxPoint x="180" y="264.5" as="sourcePoint" />
            <mxPoint x="500.0000000000032" y="300.0000000000001" as="targetPoint" />
          </mxGeometry>
        </mxCell>
        <mxCell id="hmbs_IVqfiLHla6d1OVb-17" value="" style="endArrow=block;dashed=1;endFill=0;endSize=12;html=1;rounded=0;exitX=0;exitY=0.5;exitDx=0;exitDy=0;" parent="hmbs_IVqfiLHla6d1OVb-4" source="hmbs_IVqfiLHla6d1OVb-15" target="AxsfyqmF0v3EFA9DNjUf-2" edge="1">
          <mxGeometry width="160" relative="1" as="geometry">
            <mxPoint x="170" y="254.5" as="sourcePoint" />
            <mxPoint x="500.0000000000032" y="220.0000000000001" as="targetPoint" />
          </mxGeometry>
        </mxCell>
        <mxCell id="hmbs_IVqfiLHla6d1OVb-21" value="02_Remover una reservación" style="ellipse;whiteSpace=wrap;html=1;fillColor=#fff2cc;strokeColor=#d6b656;" parent="hmbs_IVqfiLHla6d1OVb-4" vertex="1">
          <mxGeometry x="50" y="214" width="120" height="31" as="geometry" />
        </mxCell>
        <mxCell id="hmbs_IVqfiLHla6d1OVb-20" value="03_Prestar pelicula" style="ellipse;whiteSpace=wrap;html=1;fillColor=#b0e3e6;strokeColor=#0e8088;" parent="hmbs_IVqfiLHla6d1OVb-4" vertex="1">
          <mxGeometry x="50" y="294.25" width="120" height="31" as="geometry" />
        </mxCell>
        <mxCell id="hmbs_IVqfiLHla6d1OVb-23" value="04_regresar pelicula" style="ellipse;whiteSpace=wrap;html=1;fillColor=#ffe6cc;strokeColor=#d79b00;" parent="hmbs_IVqfiLHla6d1OVb-4" vertex="1">
          <mxGeometry x="50" y="364.25" width="120" height="31" as="geometry" />
        </mxCell>
        <mxCell id="hmbs_IVqfiLHla6d1OVb-30" value="&amp;lt;&amp;lt;us es&amp;gt;&amp;gt;" style="endArrow=open;endFill=1;endSize=12;html=1;rounded=0;" parent="hmbs_IVqfiLHla6d1OVb-4" source="hmbs_IVqfiLHla6d1OVb-20" target="hmbs_IVqfiLHla6d1OVb-21" edge="1">
          <mxGeometry width="160" relative="1" as="geometry">
            <mxPoint x="183" y="263.25" as="sourcePoint" />
            <mxPoint x="183" y="224.25" as="targetPoint" />
          </mxGeometry>
        </mxCell>
        <mxCell id="hmbs_IVqfiLHla6d1OVb-37" value="01_Hacer una reservación" style="ellipse;whiteSpace=wrap;html=1;fillColor=#f8cecc;strokeColor=#b85450;" parent="hmbs_IVqfiLHla6d1OVb-4" vertex="1">
          <mxGeometry x="50" y="129.75" width="120" height="31" as="geometry" />
        </mxCell>
        <mxCell id="AxsfyqmF0v3EFA9DNjUf-1" value="Añadir titulo" style="ellipse;whiteSpace=wrap;html=1;fillColor=#d5e8d4;strokeColor=#82b366;" vertex="1" parent="hmbs_IVqfiLHla6d1OVb-4">
          <mxGeometry x="360" y="94.75" width="140" height="35" as="geometry" />
        </mxCell>
        <mxCell id="AxsfyqmF0v3EFA9DNjUf-2" value="Remover o actualizar&amp;nbsp; titulo" style="ellipse;whiteSpace=wrap;html=1;fillColor=#d5e8d4;strokeColor=#82b366;" vertex="1" parent="hmbs_IVqfiLHla6d1OVb-4">
          <mxGeometry x="295" y="150" width="140" height="35" as="geometry" />
        </mxCell>
        <mxCell id="AxsfyqmF0v3EFA9DNjUf-3" value="" style="endArrow=block;dashed=1;endFill=0;endSize=12;html=1;rounded=0;" edge="1" parent="hmbs_IVqfiLHla6d1OVb-4" source="hmbs_IVqfiLHla6d1OVb-15" target="AxsfyqmF0v3EFA9DNjUf-4">
          <mxGeometry width="160" relative="1" as="geometry">
            <mxPoint x="518" y="254" as="sourcePoint" />
            <mxPoint x="380" y="214" as="targetPoint" />
          </mxGeometry>
        </mxCell>
        <mxCell id="AxsfyqmF0v3EFA9DNjUf-4" value="Añadir pelicula" style="ellipse;whiteSpace=wrap;html=1;fillColor=#d5e8d4;strokeColor=#82b366;" vertex="1" parent="hmbs_IVqfiLHla6d1OVb-4">
          <mxGeometry x="260" y="199.5" width="140" height="35" as="geometry" />
        </mxCell>
        <mxCell id="AxsfyqmF0v3EFA9DNjUf-5" value="Remover pelicula" style="ellipse;whiteSpace=wrap;html=1;fillColor=#d5e8d4;strokeColor=#82b366;" vertex="1" parent="hmbs_IVqfiLHla6d1OVb-4">
          <mxGeometry x="270" y="256" width="140" height="35" as="geometry" />
        </mxCell>
        <mxCell id="AxsfyqmF0v3EFA9DNjUf-6" value="" style="endArrow=block;dashed=1;endFill=0;endSize=12;html=1;rounded=0;exitX=0;exitY=0.5;exitDx=0;exitDy=0;" edge="1" parent="hmbs_IVqfiLHla6d1OVb-4" source="hmbs_IVqfiLHla6d1OVb-15" target="AxsfyqmF0v3EFA9DNjUf-7">
          <mxGeometry width="160" relative="1" as="geometry">
            <mxPoint x="562" y="253" as="sourcePoint" />
            <mxPoint x="410" y="294" as="targetPoint" />
          </mxGeometry>
        </mxCell>
        <mxCell id="AxsfyqmF0v3EFA9DNjUf-7" value="Añadir información del cliente" style="ellipse;whiteSpace=wrap;html=1;fillColor=#d5e8d4;strokeColor=#82b366;" vertex="1" parent="hmbs_IVqfiLHla6d1OVb-4">
          <mxGeometry x="295" y="310" width="140" height="35" as="geometry" />
        </mxCell>
        <mxCell id="AxsfyqmF0v3EFA9DNjUf-25" value="Remover o actualizar información del cliente&amp;nbsp;" style="ellipse;whiteSpace=wrap;html=1;fillColor=#d5e8d4;strokeColor=#82b366;" vertex="1" parent="hmbs_IVqfiLHla6d1OVb-4">
          <mxGeometry x="360" y="364.25" width="140" height="35" as="geometry" />
        </mxCell>
        <mxCell id="AxsfyqmF0v3EFA9DNjUf-26" value="" style="endArrow=block;dashed=1;endFill=0;endSize=12;html=1;rounded=0;exitX=0;exitY=0.5;exitDx=0;exitDy=0;" edge="1" parent="hmbs_IVqfiLHla6d1OVb-4" source="hmbs_IVqfiLHla6d1OVb-15" target="AxsfyqmF0v3EFA9DNjUf-25">
          <mxGeometry width="160" relative="1" as="geometry">
            <mxPoint x="560" y="230" as="sourcePoint" />
            <mxPoint x="403" y="321" as="targetPoint" />
          </mxGeometry>
        </mxCell>
        <mxCell id="hmbs_IVqfiLHla6d1OVb-5" value="Cliente" style="shape=umlActor;verticalLabelPosition=bottom;verticalAlign=top;html=1;outlineConnect=0;" parent="1" vertex="1">
          <mxGeometry x="130" y="80" width="30" height="60" as="geometry" />
        </mxCell>
        <mxCell id="hmbs_IVqfiLHla6d1OVb-7" style="edgeStyle=orthogonalEdgeStyle;rounded=0;orthogonalLoop=1;jettySize=auto;html=1;exitX=0.5;exitY=0.5;exitDx=0;exitDy=0;exitPerimeter=0;entryX=0.5;entryY=0;entryDx=0;entryDy=0;entryPerimeter=0;" parent="1" source="hmbs_IVqfiLHla6d1OVb-5" target="hmbs_IVqfiLHla6d1OVb-1" edge="1">
          <mxGeometry relative="1" as="geometry" />
        </mxCell>
        <mxCell id="hmbs_IVqfiLHla6d1OVb-25" value="" style="endArrow=open;endFill=1;endSize=12;html=1;rounded=0;entryX=0;entryY=0.5;entryDx=0;entryDy=0;" parent="1" source="hmbs_IVqfiLHla6d1OVb-1" target="hmbs_IVqfiLHla6d1OVb-21" edge="1">
          <mxGeometry width="160" relative="1" as="geometry">
            <mxPoint x="500" y="400" as="sourcePoint" />
            <mxPoint x="660" y="400" as="targetPoint" />
          </mxGeometry>
        </mxCell>
        <mxCell id="hmbs_IVqfiLHla6d1OVb-26" value="" style="endArrow=open;endFill=1;endSize=12;html=1;rounded=0;entryX=0;entryY=0.5;entryDx=0;entryDy=0;" parent="1" source="hmbs_IVqfiLHla6d1OVb-1" target="hmbs_IVqfiLHla6d1OVb-23" edge="1">
          <mxGeometry width="160" relative="1" as="geometry">
            <mxPoint x="25" y="634" as="sourcePoint" />
            <mxPoint x="265" y="530" as="targetPoint" />
          </mxGeometry>
        </mxCell>
        <mxCell id="hmbs_IVqfiLHla6d1OVb-27" value="" style="endArrow=open;endFill=1;endSize=12;html=1;rounded=0;entryX=0;entryY=0.5;entryDx=0;entryDy=0;" parent="1" source="hmbs_IVqfiLHla6d1OVb-1" target="hmbs_IVqfiLHla6d1OVb-20" edge="1">
          <mxGeometry width="160" relative="1" as="geometry">
            <mxPoint x="180" y="379" as="sourcePoint" />
            <mxPoint x="420" y="275" as="targetPoint" />
          </mxGeometry>
        </mxCell>
        <mxCell id="hmbs_IVqfiLHla6d1OVb-29" value="" style="endArrow=open;endFill=1;endSize=12;html=1;rounded=0;entryX=1;entryY=0.5;entryDx=0;entryDy=0;exitX=0.5;exitY=0.5;exitDx=0;exitDy=0;exitPerimeter=0;" parent="1" source="hmbs_IVqfiLHla6d1OVb-2" target="hmbs_IVqfiLHla6d1OVb-15" edge="1">
          <mxGeometry width="160" relative="1" as="geometry">
            <mxPoint x="990" y="710" as="sourcePoint" />
            <mxPoint x="1150" y="710" as="targetPoint" />
          </mxGeometry>
        </mxCell>
        <mxCell id="hmbs_IVqfiLHla6d1OVb-38" value="" style="endArrow=open;endFill=1;endSize=12;html=1;rounded=0;" parent="1" source="hmbs_IVqfiLHla6d1OVb-1" target="hmbs_IVqfiLHla6d1OVb-37" edge="1">
          <mxGeometry width="160" relative="1" as="geometry">
            <mxPoint x="170" y="174.63" as="sourcePoint" />
            <mxPoint x="448.22383837169446" y="30.00092963040106" as="targetPoint" />
          </mxGeometry>
        </mxCell>
      </root>
    </mxGraphModel>
  </diagram>
  <diagram id="lOijuElk9nyTQWYl17ju" name="Diagrama de secuencia">
    <mxGraphModel dx="913" dy="439" grid="1" gridSize="10" guides="1" tooltips="1" connect="1" arrows="1" fold="1" page="1" pageScale="1" pageWidth="1169" pageHeight="827" math="0" shadow="0">
      <root>
        <mxCell id="0" />
        <mxCell id="1" parent="0" />
        <mxCell id="Cun8VYBLeKcHUA-hqfML-2" value="Caja de prestamo" style="shape=umlLifeline;perimeter=lifelinePerimeter;whiteSpace=wrap;html=1;container=1;dropTarget=0;collapsible=0;recursiveResize=0;outlineConnect=0;portConstraint=eastwest;newEdgeStyle={&quot;curved&quot;:0,&quot;rounded&quot;:0};fillColor=#e1d5e7;strokeColor=#9673a6;" parent="1" vertex="1">
          <mxGeometry x="380" y="120" width="100" height="440" as="geometry" />
        </mxCell>
        <mxCell id="UwhZTCikj0_364BKiu5C-4" value="" style="html=1;points=[[0,0,0,0,5],[0,1,0,0,-5],[1,0,0,0,5],[1,1,0,0,-5]];perimeter=orthogonalPerimeter;outlineConnect=0;targetShapes=umlLifeline;portConstraint=eastwest;newEdgeStyle={&quot;curved&quot;:0,&quot;rounded&quot;:0};" vertex="1" parent="Cun8VYBLeKcHUA-hqfML-2">
          <mxGeometry x="45" y="80" width="10" height="50" as="geometry" />
        </mxCell>
        <mxCell id="UwhZTCikj0_364BKiu5C-9" value="" style="html=1;points=[[0,0,0,0,5],[0,1,0,0,-5],[1,0,0,0,5],[1,1,0,0,-5]];perimeter=orthogonalPerimeter;outlineConnect=0;targetShapes=umlLifeline;portConstraint=eastwest;newEdgeStyle={&quot;curved&quot;:0,&quot;rounded&quot;:0};" vertex="1" parent="Cun8VYBLeKcHUA-hqfML-2">
          <mxGeometry x="45" y="190" width="10" height="50" as="geometry" />
        </mxCell>
        <mxCell id="UwhZTCikj0_364BKiu5C-17" value="" style="html=1;points=[[0,0,0,0,5],[0,1,0,0,-5],[1,0,0,0,5],[1,1,0,0,-5]];perimeter=orthogonalPerimeter;outlineConnect=0;targetShapes=umlLifeline;portConstraint=eastwest;newEdgeStyle={&quot;curved&quot;:0,&quot;rounded&quot;:0};" vertex="1" parent="Cun8VYBLeKcHUA-hqfML-2">
          <mxGeometry x="45" y="310" width="10" height="80" as="geometry" />
        </mxCell>
        <mxCell id="Cun8VYBLeKcHUA-hqfML-3" value="Sistema" style="shape=umlLifeline;perimeter=lifelinePerimeter;whiteSpace=wrap;html=1;container=1;dropTarget=0;collapsible=0;recursiveResize=0;outlineConnect=0;portConstraint=eastwest;newEdgeStyle={&quot;curved&quot;:0,&quot;rounded&quot;:0};fillColor=#dae8fc;strokeColor=#6c8ebf;" parent="1" vertex="1">
          <mxGeometry x="530" y="120" width="100" height="440" as="geometry" />
        </mxCell>
        <mxCell id="UwhZTCikj0_364BKiu5C-6" value="" style="html=1;points=[[0,0,0,0,5],[0,1,0,0,-5],[1,0,0,0,5],[1,1,0,0,-5]];perimeter=orthogonalPerimeter;outlineConnect=0;targetShapes=umlLifeline;portConstraint=eastwest;newEdgeStyle={&quot;curved&quot;:0,&quot;rounded&quot;:0};" vertex="1" parent="Cun8VYBLeKcHUA-hqfML-3">
          <mxGeometry x="45" y="80" width="10" height="30" as="geometry" />
        </mxCell>
        <mxCell id="Cun8VYBLeKcHUA-hqfML-4" value="Información del comprador" style="shape=umlLifeline;perimeter=lifelinePerimeter;whiteSpace=wrap;html=1;container=1;dropTarget=0;collapsible=0;recursiveResize=0;outlineConnect=0;portConstraint=eastwest;newEdgeStyle={&quot;curved&quot;:0,&quot;rounded&quot;:0};fillColor=#fff2cc;strokeColor=#d6b656;" parent="1" vertex="1">
          <mxGeometry x="680" y="120" width="100" height="440" as="geometry" />
        </mxCell>
        <mxCell id="UwhZTCikj0_364BKiu5C-18" value="" style="html=1;points=[[0,0,0,0,5],[0,1,0,0,-5],[1,0,0,0,5],[1,1,0,0,-5]];perimeter=orthogonalPerimeter;outlineConnect=0;targetShapes=umlLifeline;portConstraint=eastwest;newEdgeStyle={&quot;curved&quot;:0,&quot;rounded&quot;:0};" vertex="1" parent="Cun8VYBLeKcHUA-hqfML-4">
          <mxGeometry x="45" y="310" width="10" height="30" as="geometry" />
        </mxCell>
        <mxCell id="Cun8VYBLeKcHUA-hqfML-5" value="empleado" style="shape=umlLifeline;perimeter=lifelinePerimeter;whiteSpace=wrap;html=1;container=1;dropTarget=0;collapsible=0;recursiveResize=0;outlineConnect=0;portConstraint=eastwest;newEdgeStyle={&quot;curved&quot;:0,&quot;rounded&quot;:0};participant=umlActor;" parent="1" vertex="1">
          <mxGeometry x="300" y="120" width="20" height="440" as="geometry" />
        </mxCell>
        <mxCell id="4RMYAEs_UCMxQP3dUy0k-8" value="" style="html=1;points=[[0,0,0,0,5],[0,1,0,0,-5],[1,0,0,0,5],[1,1,0,0,-5]];perimeter=orthogonalPerimeter;outlineConnect=0;targetShapes=umlLifeline;portConstraint=eastwest;newEdgeStyle={&quot;curved&quot;:0,&quot;rounded&quot;:0};" parent="Cun8VYBLeKcHUA-hqfML-5" vertex="1">
          <mxGeometry x="5" y="80" width="10" height="80" as="geometry" />
        </mxCell>
        <mxCell id="UwhZTCikj0_364BKiu5C-8" value="" style="html=1;points=[[0,0,0,0,5],[0,1,0,0,-5],[1,0,0,0,5],[1,1,0,0,-5]];perimeter=orthogonalPerimeter;outlineConnect=0;targetShapes=umlLifeline;portConstraint=eastwest;newEdgeStyle={&quot;curved&quot;:0,&quot;rounded&quot;:0};" vertex="1" parent="Cun8VYBLeKcHUA-hqfML-5">
          <mxGeometry x="5" y="190" width="10" height="80" as="geometry" />
        </mxCell>
        <mxCell id="UwhZTCikj0_364BKiu5C-16" value="" style="html=1;points=[[0,0,0,0,5],[0,1,0,0,-5],[1,0,0,0,5],[1,1,0,0,-5]];perimeter=orthogonalPerimeter;outlineConnect=0;targetShapes=umlLifeline;portConstraint=eastwest;newEdgeStyle={&quot;curved&quot;:0,&quot;rounded&quot;:0};" vertex="1" parent="Cun8VYBLeKcHUA-hqfML-5">
          <mxGeometry x="5" y="310" width="10" height="80" as="geometry" />
        </mxCell>
        <mxCell id="4RMYAEs_UCMxQP3dUy0k-2" value="Prestamo" style="shape=umlLifeline;perimeter=lifelinePerimeter;whiteSpace=wrap;html=1;container=1;dropTarget=0;collapsible=0;recursiveResize=0;outlineConnect=0;portConstraint=eastwest;newEdgeStyle={&quot;curved&quot;:0,&quot;rounded&quot;:0};fillColor=#d5e8d4;strokeColor=#82b366;" parent="1" vertex="1">
          <mxGeometry x="810" y="120" width="100" height="440" as="geometry" />
        </mxCell>
        <mxCell id="UwhZTCikj0_364BKiu5C-19" value="" style="html=1;points=[[0,0,0,0,5],[0,1,0,0,-5],[1,0,0,0,5],[1,1,0,0,-5]];perimeter=orthogonalPerimeter;outlineConnect=0;targetShapes=umlLifeline;portConstraint=eastwest;newEdgeStyle={&quot;curved&quot;:0,&quot;rounded&quot;:0};" vertex="1" parent="4RMYAEs_UCMxQP3dUy0k-2">
          <mxGeometry x="45" y="360" width="10" height="30" as="geometry" />
        </mxCell>
        <mxCell id="UwhZTCikj0_364BKiu5C-1" value="Pelicula" style="shape=umlLifeline;perimeter=lifelinePerimeter;whiteSpace=wrap;html=1;container=1;dropTarget=0;collapsible=0;recursiveResize=0;outlineConnect=0;portConstraint=eastwest;newEdgeStyle={&quot;curved&quot;:0,&quot;rounded&quot;:0};fillColor=#ffe6cc;strokeColor=#d79b00;" vertex="1" parent="1">
          <mxGeometry x="950" y="120" width="100" height="440" as="geometry" />
        </mxCell>
        <mxCell id="UwhZTCikj0_364BKiu5C-13" value="" style="html=1;points=[[0,0,0,0,5],[0,1,0,0,-5],[1,0,0,0,5],[1,1,0,0,-5]];perimeter=orthogonalPerimeter;outlineConnect=0;targetShapes=umlLifeline;portConstraint=eastwest;newEdgeStyle={&quot;curved&quot;:0,&quot;rounded&quot;:0};" vertex="1" parent="UwhZTCikj0_364BKiu5C-1">
          <mxGeometry x="45" y="190" width="10" height="30" as="geometry" />
        </mxCell>
        <mxCell id="UwhZTCikj0_364BKiu5C-5" value="01_buscar" style="endArrow=open;endFill=1;endSize=12;html=1;rounded=0;" edge="1" parent="1">
          <mxGeometry y="12" width="160" relative="1" as="geometry">
            <mxPoint x="315" y="202" as="sourcePoint" />
            <mxPoint x="425" y="202" as="targetPoint" />
            <mxPoint as="offset" />
          </mxGeometry>
        </mxCell>
        <mxCell id="UwhZTCikj0_364BKiu5C-7" value="02_buscar titulo" style="endArrow=open;endFill=1;endSize=12;html=1;rounded=0;" edge="1" parent="1">
          <mxGeometry width="160" relative="1" as="geometry">
            <mxPoint x="435" y="211" as="sourcePoint" />
            <mxPoint x="575" y="211" as="targetPoint" />
          </mxGeometry>
        </mxCell>
        <mxCell id="UwhZTCikj0_364BKiu5C-14" value="03_encontar pelicula" style="endArrow=open;endFill=1;endSize=12;html=1;rounded=0;entryX=0.5;entryY=0.6;entryDx=0;entryDy=0;entryPerimeter=0;" edge="1" parent="1">
          <mxGeometry x="-0.0435" y="13" width="160" relative="1" as="geometry">
            <mxPoint x="315" y="313" as="sourcePoint" />
            <mxPoint x="430" y="313" as="targetPoint" />
            <mxPoint as="offset" />
          </mxGeometry>
        </mxCell>
        <mxCell id="UwhZTCikj0_364BKiu5C-15" value="04_encontar titulo en sistema" style="endArrow=open;endFill=1;endSize=12;html=1;rounded=0;" edge="1" parent="1">
          <mxGeometry x="-0.0435" y="13" width="160" relative="1" as="geometry">
            <mxPoint x="435" y="326" as="sourcePoint" />
            <mxPoint x="995" y="326" as="targetPoint" />
            <mxPoint as="offset" />
          </mxGeometry>
        </mxCell>
        <mxCell id="UwhZTCikj0_364BKiu5C-20" value="05_identificar cliente" style="endArrow=open;endFill=1;endSize=12;html=1;rounded=0;" edge="1" parent="1">
          <mxGeometry x="-0.0435" y="13" width="160" relative="1" as="geometry">
            <mxPoint x="315" y="431" as="sourcePoint" />
            <mxPoint x="425" y="431" as="targetPoint" />
            <mxPoint as="offset" />
          </mxGeometry>
        </mxCell>
        <mxCell id="UwhZTCikj0_364BKiu5C-21" value="06_encontrar cliente" style="endArrow=open;endFill=1;endSize=12;html=1;rounded=0;" edge="1" parent="1">
          <mxGeometry x="-0.0435" y="13" width="160" relative="1" as="geometry">
            <mxPoint x="435" y="442.9999999999999" as="sourcePoint" />
            <mxPoint x="725" y="442.9999999999999" as="targetPoint" />
            <mxPoint as="offset" />
          </mxGeometry>
        </mxCell>
        <mxCell id="UwhZTCikj0_364BKiu5C-22" value="07_crear(información del cliente, ficha de préstamo)" style="endArrow=open;endFill=1;endSize=12;html=1;rounded=0;" edge="1" parent="1">
          <mxGeometry x="-0.0435" y="13" width="160" relative="1" as="geometry">
            <mxPoint x="435" y="489.0000000000001" as="sourcePoint" />
            <mxPoint x="855" y="489.0000000000001" as="targetPoint" />
            <mxPoint as="offset" />
          </mxGeometry>
        </mxCell>
      </root>
    </mxGraphModel>
  </diagram>
  <diagram id="8TQLLPEasxpEax0QfqP0" name="Diagrama de colaboración">
    <mxGraphModel dx="778" dy="374" grid="1" gridSize="10" guides="1" tooltips="1" connect="1" arrows="1" fold="1" page="1" pageScale="1" pageWidth="827" pageHeight="1169" math="0" shadow="0">
      <root>
        <mxCell id="0" />
        <mxCell id="1" parent="0" />
        <mxCell id="ZzwoXxpZwof6dv7mLEyA-1" value="Caja de prestamo" style="html=1;whiteSpace=wrap;fillColor=#e1d5e7;strokeColor=#9673a6;" vertex="1" parent="1">
          <mxGeometry x="359" y="240" width="110" height="50" as="geometry" />
        </mxCell>
        <mxCell id="cLvP4SzOB377jpoKZhf--1" value="empleado" style="shape=umlActor;verticalLabelPosition=bottom;verticalAlign=top;html=1;" vertex="1" parent="1">
          <mxGeometry x="180" y="130" width="30" height="60" as="geometry" />
        </mxCell>
        <mxCell id="cLvP4SzOB377jpoKZhf--5" value="01_buscar&lt;br&gt;03_encontar pelicula&lt;br&gt;05_identificar cliente" style="endArrow=none;html=1;rounded=0;" edge="1" parent="1" source="cLvP4SzOB377jpoKZhf--1" target="ZzwoXxpZwof6dv7mLEyA-1">
          <mxGeometry x="0.1924" y="45" width="50" height="50" relative="1" as="geometry">
            <mxPoint x="210" y="320" as="sourcePoint" />
            <mxPoint x="260" y="270" as="targetPoint" />
            <mxPoint as="offset" />
          </mxGeometry>
        </mxCell>
        <mxCell id="cLvP4SzOB377jpoKZhf--6" value="Sistema" style="html=1;whiteSpace=wrap;fillColor=#dae8fc;strokeColor=#6c8ebf;" vertex="1" parent="1">
          <mxGeometry x="540" y="90" width="110" height="50" as="geometry" />
        </mxCell>
        <mxCell id="cLvP4SzOB377jpoKZhf--7" value="Información del comprador" style="html=1;whiteSpace=wrap;fillColor=#fff2cc;strokeColor=#d6b656;" vertex="1" parent="1">
          <mxGeometry x="650" y="240" width="110" height="50" as="geometry" />
        </mxCell>
        <mxCell id="cLvP4SzOB377jpoKZhf--8" value="Prestamo" style="html=1;whiteSpace=wrap;fillColor=#d5e8d4;strokeColor=#82b366;" vertex="1" parent="1">
          <mxGeometry x="540" y="390" width="110" height="50" as="geometry" />
        </mxCell>
        <mxCell id="9pXLd_UbycNnT4wBY3ER-1" value="Pelicula" style="html=1;whiteSpace=wrap;fillColor=#ffe6cc;strokeColor=#d79b00;" vertex="1" parent="1">
          <mxGeometry x="140" y="390" width="110" height="50" as="geometry" />
        </mxCell>
        <mxCell id="U4aptjKOhGPY_m1UoZSk-1" value="02_buscar titulo" style="endArrow=none;html=1;rounded=0;" edge="1" parent="1" source="cLvP4SzOB377jpoKZhf--6" target="ZzwoXxpZwof6dv7mLEyA-1">
          <mxGeometry x="0.2576" y="-30" width="50" height="50" relative="1" as="geometry">
            <mxPoint x="220" y="177" as="sourcePoint" />
            <mxPoint x="372" y="250" as="targetPoint" />
            <mxPoint as="offset" />
          </mxGeometry>
        </mxCell>
        <mxCell id="U4aptjKOhGPY_m1UoZSk-2" value="" style="endArrow=none;html=1;rounded=0;" edge="1" parent="1" source="cLvP4SzOB377jpoKZhf--7" target="ZzwoXxpZwof6dv7mLEyA-1">
          <mxGeometry width="50" height="50" relative="1" as="geometry">
            <mxPoint x="575" y="150" as="sourcePoint" />
            <mxPoint x="454" y="250" as="targetPoint" />
          </mxGeometry>
        </mxCell>
        <mxCell id="r3LNVMgqgy3_JNHkcfJU-1" value="06_encontrar cliente" style="edgeLabel;html=1;align=center;verticalAlign=middle;resizable=0;points=[];" vertex="1" connectable="0" parent="U4aptjKOhGPY_m1UoZSk-2">
          <mxGeometry x="0.1001" y="-1" relative="1" as="geometry">
            <mxPoint y="16" as="offset" />
          </mxGeometry>
        </mxCell>
        <mxCell id="U4aptjKOhGPY_m1UoZSk-3" value="" style="endArrow=none;html=1;rounded=0;" edge="1" parent="1" source="cLvP4SzOB377jpoKZhf--8" target="ZzwoXxpZwof6dv7mLEyA-1">
          <mxGeometry width="50" height="50" relative="1" as="geometry">
            <mxPoint x="611" y="340" as="sourcePoint" />
            <mxPoint x="430" y="340" as="targetPoint" />
          </mxGeometry>
        </mxCell>
        <mxCell id="bo0GwSXCBlizTtX2yr9O-1" value="07_crear(información del cliente, ficha de préstamo)" style="edgeLabel;html=1;align=center;verticalAlign=middle;resizable=0;points=[];" vertex="1" connectable="0" parent="U4aptjKOhGPY_m1UoZSk-3">
          <mxGeometry x="-0.3173" y="3" relative="1" as="geometry">
            <mxPoint x="158" y="12" as="offset" />
          </mxGeometry>
        </mxCell>
        <mxCell id="U4aptjKOhGPY_m1UoZSk-4" value="04_encontrar titulo en el sistema" style="endArrow=none;html=1;rounded=0;" edge="1" parent="1" source="9pXLd_UbycNnT4wBY3ER-1" target="ZzwoXxpZwof6dv7mLEyA-1">
          <mxGeometry x="-0.7879" y="48" width="50" height="50" relative="1" as="geometry">
            <mxPoint x="451" y="420" as="sourcePoint" />
            <mxPoint x="330" y="320" as="targetPoint" />
            <mxPoint as="offset" />
          </mxGeometry>
        </mxCell>
        <mxCell id="r3LNVMgqgy3_JNHkcfJU-2" value="" style="endArrow=open;endFill=1;endSize=12;html=1;rounded=0;" edge="1" parent="1">
          <mxGeometry width="160" relative="1" as="geometry">
            <mxPoint x="230" y="210" as="sourcePoint" />
            <mxPoint x="320" y="250" as="targetPoint" />
          </mxGeometry>
        </mxCell>
        <mxCell id="r3LNVMgqgy3_JNHkcfJU-3" value="&lt;span style=&quot;color: rgba(0, 0, 0, 0); font-family: monospace; font-size: 0px; text-align: start; background-color: rgb(251, 251, 251);&quot;&gt;%3CmxGraphModel%3E%3Croot%3E%3CmxCell%20id%3D%220%22%2F%3E%3CmxCell%20id%3D%221%22%20parent%3D%220%22%2F%3E%3CmxCell%20id%3D%222%22%20value%3D%22%22%20style%3D%22endArrow%3Dopen%3BendFill%3D1%3BendSize%3D12%3Bhtml%3D1%3Brounded%3D0%3B%22%20edge%3D%221%22%20parent%3D%221%22%3E%3CmxGeometry%20width%3D%22160%22%20relative%3D%221%22%20as%3D%22geometry%22%3E%3CmxPoint%20x%3D%22230%22%20y%3D%22210%22%20as%3D%22sourcePoint%22%2F%3E%3CmxPoint%20x%3D%22320%22%20y%3D%22250%22%20as%3D%22targetPoint%22%2F%3E%3C%2FmxGeometry%3E%3C%2FmxCell%3E%3C%2Froot%3E%3C%2FmxGraphModel%3E&lt;/span&gt;" style="endArrow=open;endFill=1;endSize=12;html=1;rounded=0;" edge="1" parent="1">
          <mxGeometry width="160" relative="1" as="geometry">
            <mxPoint x="430" y="300" as="sourcePoint" />
            <mxPoint x="520" y="370" as="targetPoint" />
          </mxGeometry>
        </mxCell>
        <mxCell id="r3LNVMgqgy3_JNHkcfJU-4" value="&lt;span style=&quot;color: rgba(0, 0, 0, 0); font-family: monospace; font-size: 0px; text-align: start; background-color: rgb(251, 251, 251);&quot;&gt;%3CmxGraphModel%3E%3Croot%3E%3CmxCell%20id%3D%220%22%2F%3E%3CmxCell%20id%3D%221%22%20parent%3D%220%22%2F%3E%3CmxCell%20id%3D%222%22%20value%3D%22%22%20style%3D%22endArrow%3Dopen%3BendFill%3D1%3BendSize%3D12%3Bhtml%3D1%3Brounded%3D0%3B%22%20edge%3D%221%22%20parent%3D%221%22%3E%3CmxGeometry%20width%3D%22160%22%20relative%3D%221%22%20as%3D%22geometry%22%3E%3CmxPoint%20x%3D%22230%22%20y%3D%22210%22%20as%3D%22sourcePoint%22%2F%3E%3CmxPoint%20x%3D%22320%22%20y%3D%22250%22%20as%3D%22targetPoint%22%2F%3E%3C%2FmxGeometry%3E%3C%2FmxCell%3E%3C%2Froot%3E%3C%2FmxGraphModel%3E&lt;/span&gt;" style="endArrow=open;endFill=1;endSize=12;html=1;rounded=0;" edge="1" parent="1">
          <mxGeometry width="160" relative="1" as="geometry">
            <mxPoint x="380" y="300" as="sourcePoint" />
            <mxPoint x="280" y="370" as="targetPoint" />
          </mxGeometry>
        </mxCell>
        <mxCell id="r3LNVMgqgy3_JNHkcfJU-5" value="&lt;span style=&quot;color: rgba(0, 0, 0, 0); font-family: monospace; font-size: 0px; text-align: start; background-color: rgb(251, 251, 251);&quot;&gt;%3CmxGraphModel%3E%3Croot%3E%3CmxCell%20id%3D%220%22%2F%3E%3CmxCell%20id%3D%221%22%20parent%3D%220%22%2F%3E%3CmxCell%20id%3D%222%22%20value%3D%22%22%20style%3D%22endArrow%3Dopen%3BendFill%3D1%3BendSize%3D12%3Bhtml%3D1%3Brounded%3D0%3B%22%20edge%3D%221%22%20parent%3D%221%22%3E%3CmxGeometry%20width%3D%22160%22%20relative%3D%221%22%20as%3D%22geometry%22%3E%3CmxPoint%20x%3D%22230%22%20y%3D%22210%22%20as%3D%22sourcePoint%22%2F%3E%3CmxPoint%20x%3D%22320%22%20y%3D%22250%22%20as%3D%22targetPoint%22%2F%3E%3C%2FmxGeometry%3E%3C%2FmxCell%3E%3C%2Froot%3E%3C%2FmxGraphModel%3E&lt;/span&gt;" style="endArrow=open;endFill=1;endSize=12;html=1;rounded=0;" edge="1" parent="1">
          <mxGeometry width="160" relative="1" as="geometry">
            <mxPoint x="470" y="230" as="sourcePoint" />
            <mxPoint x="570" y="150" as="targetPoint" />
          </mxGeometry>
        </mxCell>
        <mxCell id="r3LNVMgqgy3_JNHkcfJU-6" value="&lt;span style=&quot;color: rgba(0, 0, 0, 0); font-family: monospace; font-size: 0px; text-align: start; background-color: rgb(251, 251, 251);&quot;&gt;%3CmxGraphModel%3E%3Croot%3E%3CmxCell%20id%3D%220%22%2F%3E%3CmxCell%20id%3D%221%22%20parent%3D%220%22%2F%3E%3CmxCell%20id%3D%222%22%20value%3D%22%22%20style%3D%22endArrow%3Dopen%3BendFill%3D1%3BendSize%3D12%3Bhtml%3D1%3Brounded%3D0%3B%22%20edge%3D%221%22%20parent%3D%221%22%3E%3CmxGeometry%20width%3D%22160%22%20relative%3D%221%22%20as%3D%22geometry%22%3E%3CmxPoint%20x%3D%22230%22%20y%3D%22210%22%20as%3D%22sourcePoint%22%2F%3E%3CmxPoint%20x%3D%22320%22%20y%3D%22250%22%20as%3D%22targetPoint%22%2F%3E%3C%2FmxGeometry%3E%3C%2FmxCell%3E%3C%2Froot%3E%3C%2FmxGraphModel%3E&lt;/span&gt;" style="endArrow=open;endFill=1;endSize=12;html=1;rounded=0;" edge="1" parent="1">
          <mxGeometry width="160" relative="1" as="geometry">
            <mxPoint x="480" y="256" as="sourcePoint" />
            <mxPoint x="630" y="256" as="targetPoint" />
          </mxGeometry>
        </mxCell>
      </root>
    </mxGraphModel>
  </diagram>
</mxfile>
